<?xml version="1.0" encoding="utf-8"?>
<!-- Generator: Adobe Illustrator 17.0.0, SVG Export Plug-In . SVG Version: 6.00 Build 0)  -->
<!DOCTYPE svg PUBLIC "-//W3C//DTD SVG 1.1//EN" "http://www.w3.org/Graphics/SVG/1.1/DTD/svg11.dtd">
<svg version="1.1" id="Layer_1" xmlns="http://www.w3.org/2000/svg" xmlns:xlink="http://www.w3.org/1999/xlink" x="0px" y="0px"
	 width="307.407px" height="302.778px" viewBox="0 0 307.407 302.778" enable-background="new 0 0 307.407 302.778"
	 xml:space="preserve">
<g>
	<circle fill="#00ADEE" cx="154.778" cy="149.292" r="145.333"/>
	<path d="M116.842,8.531c0,0,0.867-0.208,2.547-0.612c1.69-0.37,4.145-1.092,7.466-1.648c6.579-1.322,16.362-2.76,28.892-2.697
		c1.565,0.019,3.171,0.039,4.819,0.06c1.645,0.099,3.331,0.201,5.057,0.305c1.73,0.068,3.486,0.291,5.284,0.486
		c1.797,0.21,3.642,0.356,5.499,0.695c7.477,1.029,15.479,2.812,23.794,5.48c16.604,5.291,34.61,14.281,51.106,28.284
		c8.201,7.018,16.03,15.221,22.947,24.633c6.95,9.386,12.854,20.036,17.582,31.535c0.636,1.421,1.138,2.899,1.678,4.368
		c0.531,1.473,1.065,2.951,1.6,4.433c0.464,1.507,0.929,3.018,1.395,4.534l0.7,2.279c0.015,0.046,0.08,0.258,0.097,0.341
		l0.071,0.285l0.142,0.571l0.285,1.144c0.38,1.526,0.761,3.057,1.143,4.593c0.366,1.548,0.641,3.171,0.966,4.761
		c0.698,3.197,1.077,6.418,1.557,9.656c0.74,6.496,1.253,13.111,1.104,19.795c0.049,3.345-0.25,6.693-0.419,10.063
		c-0.144,1.68-0.348,3.359-0.521,5.045l-0.273,2.531l-0.394,2.52c-1.981,13.475-5.967,26.883-11.778,39.656
		c-2.888,6.4-6.362,12.567-10.144,18.574c-3.818,5.992-8.173,11.67-12.827,17.124c-4.681,5.439-9.859,10.471-15.298,15.229
		c-5.46,4.744-11.365,8.987-17.477,12.92c-6.136,3.91-12.632,7.25-19.277,10.261c-6.681,2.947-13.602,5.325-20.622,7.356
		l-5.279,1.32c-0.877,0.206-1.705,0.455-2.621,0.626l-2.722,0.538c-1.813,0.331-3.636,0.774-5.443,1.008l-5.428,0.785
		c-7.26,0.829-14.572,1.3-21.871,1.093c-7.291-0.237-14.57-0.855-21.731-2.122c-7.15-1.287-14.227-2.949-21.09-5.221
		c-6.847-2.298-13.561-4.949-19.978-8.153c-6.4-3.224-12.602-6.792-18.419-10.86c-11.653-8.096-22.071-17.695-30.779-28.416
		l-1.64-2.001l-1.54-2.072c-1.018-1.385-2.059-2.749-3.049-4.144c-1.881-2.859-3.864-5.636-5.542-8.586
		c-3.577-5.767-6.512-11.83-9.179-17.908c-1.235-3.083-2.55-6.115-3.561-9.24c-0.526-1.554-1.104-3.087-1.58-4.647
		c-0.457-1.566-0.912-3.126-1.366-4.683l-0.34-1.166l-0.169-0.582l-0.085-0.291c-0.025-0.074-0.099-0.398-0.099-0.398l-0.53-2.288
		c-0.353-1.523-0.704-3.041-1.055-4.554c-0.309-1.572-0.583-3.184-0.873-4.765c-0.28-1.587-0.598-3.172-0.763-4.734
		c-1.746-12.503-1.918-24.874-0.516-36.637c1.33-11.776,4.163-22.918,7.864-33.195c3.73-10.279,8.487-19.648,13.751-28.042
		c5.277-8.395,11.121-15.782,17.1-22.23c5.979-6.452,12.115-11.963,18.155-16.554c1.458-1.213,3.001-2.254,4.469-3.324
		c1.477-1.059,2.902-2.12,4.382-3.034c1.458-0.942,2.881-1.863,4.271-2.761c1.43-0.831,2.824-1.641,4.182-2.429
		c0.679-0.393,1.349-0.78,2.01-1.163c0.668-0.369,1.346-0.699,2.004-1.042c1.318-0.682,2.597-1.344,3.838-1.987
		c2.498-1.25,4.905-2.286,7.108-3.322c2.246-0.939,4.348-1.754,6.26-2.529c1.917-0.762,3.716-1.304,5.295-1.87
		c3.155-1.151,5.666-1.74,7.322-2.252c1.666-0.479,2.525-0.726,2.525-0.726L116.842,8.531z M117.065,9.403
		c0,0-0.85,0.26-2.497,0.765c-1.636,0.537-4.119,1.164-7.232,2.361c-6.265,2.217-15.431,5.821-26.017,12.336
		C70.747,31.314,58.62,40.583,47.517,53.755c-11.094,13.094-21.246,29.992-27.51,50.024c-3.117,10.007-5.156,20.759-6.104,31.948
		c-0.167,1.395-0.168,2.809-0.25,4.221c-0.056,1.414-0.147,2.832-0.176,4.257c0.006,1.426,0.013,2.857,0.019,4.294l0.008,2.158
		l0.11,2.164c0.073,1.445,0.147,2.895,0.221,4.35c0.077,1.455,0.267,2.907,0.395,4.368c0.222,2.928,0.701,5.846,1.138,8.788
		c0.187,1.486,0.51,2.911,0.795,4.359c0.293,1.447,0.587,2.899,0.882,4.356c0.382,1.506,0.765,3.016,1.15,4.531l0.578,2.276
		l0.627,2.084c0.441,1.459,0.884,2.923,1.328,4.391c0.461,1.462,1.023,2.896,1.53,4.352c0.975,2.929,2.246,5.76,3.429,8.643
		c2.571,5.674,5.367,11.332,8.717,16.738c1.574,2.765,3.445,5.359,5.207,8.038c0.931,1.306,1.912,2.581,2.867,3.877l1.445,1.94
		l1.542,1.871c8.081,10.11,17.772,19.214,28.66,26.921c1.378,0.939,2.759,1.88,4.141,2.822c1.395,0.924,2.846,1.764,4.269,2.653
		l2.15,1.312l2.206,1.223c1.482,0.797,2.923,1.679,4.443,2.412c5.992,3.118,12.279,5.716,18.704,7.995
		c6.441,2.253,13.098,3.928,19.839,5.26c6.753,1.307,13.635,1.971,20.539,2.297c6.913,0.292,13.851-0.064,20.757-0.753l5.166-0.675
		c1.734-0.198,3.387-0.587,5.086-0.869l2.534-0.459c0.84-0.141,1.728-0.391,2.59-0.581l5.12-1.204
		c6.707-1.859,13.33-4.043,19.731-6.777c6.365-2.797,12.603-5.905,18.502-9.57c5.876-3.688,11.569-7.671,16.844-12.147
		c5.253-4.49,10.271-9.246,14.817-14.406c4.519-5.175,8.765-10.57,12.497-16.28c3.697-5.725,7.11-11.61,9.958-17.733
		c5.733-12.218,9.729-25.086,11.792-38.059l0.41-2.426l0.291-2.438c0.185-1.625,0.403-3.243,0.561-4.863
		c0.198-3.25,0.53-6.481,0.518-9.712c0.223-6.456-0.201-12.856-0.84-19.151c-0.428-3.134-0.76-6.283-1.389-9.317
		c-0.295-1.532-0.525-3.046-0.869-4.581c-0.364-1.54-0.727-3.075-1.089-4.606l-0.271-1.147L293,112.355l-0.068-0.286
		c-0.024-0.109-0.024-0.082-0.062-0.225l-0.636-2.223c-0.423-1.481-0.845-2.957-1.266-4.428c-0.491-1.449-0.98-2.894-1.468-4.334
		c-0.496-1.437-0.954-2.885-1.545-4.276c-4.372-11.262-9.91-21.751-16.512-31.047c-6.595-9.296-13.985-17.571-21.872-24.662
		c-15.819-14.186-33.39-23.545-49.76-29.086c-16.417-5.609-31.649-7.327-44.068-7.43c-12.462-0.147-22.202,1.437-28.71,2.746
		c-3.278,0.563-5.752,1.301-7.434,1.679c-1.678,0.411-2.544,0.624-2.544,0.624L117.065,9.403z"/>
</g>
<path fill="#6D6E71" d="M74.777,210.598c0,0,2.274,53.032,69.804,44.365s9.699-66-13.719-63.667c-2.802,0.279-6.64-4.345-9.043-3.5
	C104.144,194.013,96.978,218.121,74.777,210.598z"/>
<ellipse fill="#91278E" cx="73.774" cy="164.038" rx="43.333" ry="42.408"/>
<image display="none" overflow="visible" width="2480" height="3508" xlink:href="../../../../../Pictures/Scan.jpeg"  transform="matrix(0.24 0 0 0.24 -67.5556 -74.7037)">
</image>
<path fill="#231F20" d="M74.778,217.63c0,0,33.333,45,66.333,35.333s31.333-31.667,29-35.333c-2.333-3.667-2.333-10.667-27-17
	c-24.667-6.333-22.333-19-22.333-19s13.667,13,40,16.667s17,33,17,33s-11,44-57.333,30.333
	c-46.333-13.667-45.667-42.333-45.667-42.333"/>
<path fill="#91278E" d="M37.633,144.097c0,0,7.145-130.468,147.145-109.801S277.73,239.63,229.92,220.63
	c0,0,25.524-50.333-23.143-110.333c0,0-2.667-20,0.333-28c0,0-31.276,17.202-62.53,32.667
	c-29.752,14.722-59.728,27.619-53.197,32.333C104.778,156.963,37.633,144.097,37.633,144.097z"/>
<path fill="#231F20" d="M81.444,206.296c0,0,30.667-13,29.667-40.667s-29.667-37.667-29.667-37.667s32-17.333,42.667,33
	C134.778,211.296,81.444,206.296,81.444,206.296z"/>
<path fill="#231F20" d="M91.384,125.191c0,0,51.393,2.772,106.393-50.895c0,0-2,29.401-40,47.867S91.384,125.191,91.384,125.191z"/>
<path fill="#231F20" d="M226.111,220.63c0,0,16.2-35.667,3.933-57.333c-12.267-21.667-37.933-40.333-22.933-81
	c0,0-11.667,22.333,33.333,63.667S226.111,220.63,226.111,220.63z"/>
<path fill="#231F20" d="M70.111,206.434c0,0-47-8.471-30.333-72.137c0,0-16.333,10.333-10,42S70.111,206.434,70.111,206.434z"/>
<path fill="#231F20" d="M40.444,132.296c0,0,14.333-100.667,124.667-95.667s115.398,167.427,87.398,176.427
	c0,0,48.633-16.76,25.3-96.427s-98.425-92.457-126.06-92.333C125.031,24.416,35.778,54.963,40.444,132.296z"/>
<path fill="#231F20" d="M136.444,234.296l-2.667,7.667c0,0-10.179-2.667-8.256-7.667H136.444z"/>
<path fill="#231F20" d="M144.967,221.821l6.783-4.459c0,0-5.073-9.219-9.452-6.132L144.967,221.821z"/>
<path fill="#231F20" d="M73.716,193.932c0,0,0.162-27.624-26.472-27.924c0,0,1.1,38.228,26.657,29.245"/>
<circle fill="#FFFFFF" cx="62.165" cy="182.729" r="3.445"/>
</svg>
